<svg width="18" height="19" viewBox="0 0 18 19" fill="none" xmlns="http://www.w3.org/2000/svg">
<path d="M9 2.1875C7.55373 2.1875 6.13993 2.61637 4.9374 3.41988C3.73486 4.22339 2.7976 5.36544 2.24413 6.70163C1.69067 8.03781 1.54586 9.50811 1.82801 10.9266C2.11017 12.3451 2.80661 13.648 3.82928 14.6707C4.85196 15.6934 6.15492 16.3898 7.57341 16.672C8.99189 16.9541 10.4622 16.8093 11.7984 16.2559C13.1346 15.7024 14.2766 14.7651 15.0801 13.5626C15.8836 12.3601 16.3125 10.9463 16.3125 9.5C16.3103 7.56129 15.5391 5.70263 14.1682 4.33176C12.7974 2.96088 10.9387 2.18974 9 2.1875ZM11.5313 7.25C11.6981 7.25 11.8613 7.29948 12 7.3922C12.1388 7.48491 12.2469 7.61669 12.3108 7.77086C12.3746 7.92504 12.3913 8.09469 12.3588 8.25836C12.3262 8.42203 12.2459 8.57237 12.1279 8.69037C12.0099 8.80837 11.8595 8.88873 11.6959 8.92129C11.5322 8.95384 11.3625 8.93713 11.2084 8.87327C11.0542 8.80941 10.9224 8.70127 10.8297 8.56251C10.737 8.42376 10.6875 8.26063 10.6875 8.09375C10.6875 7.86998 10.7764 7.65537 10.9346 7.49714C11.0929 7.33891 11.3075 7.25001 11.5313 7.25ZM6.46875 7.25C6.63563 7.25 6.79876 7.29948 6.93752 7.3922C7.07627 7.48491 7.18442 7.61669 7.24828 7.77086C7.31214 7.92504 7.32885 8.09469 7.29629 8.25836C7.26373 8.42203 7.18338 8.57237 7.06537 8.69037C6.94737 8.80837 6.79703 8.88873 6.63336 8.92129C6.46969 8.95384 6.30004 8.93713 6.14586 8.87327C5.99169 8.80941 5.85991 8.70127 5.7672 8.56251C5.67449 8.42376 5.625 8.26063 5.625 8.09375C5.62501 7.86998 5.71391 7.65537 5.87214 7.49714C6.03038 7.33891 6.24498 7.25001 6.46875 7.25ZM12.4105 11.469C12.0648 12.0675 11.5676 12.5645 10.9689 12.91C10.3703 13.2556 9.69123 13.4375 9.00001 13.4375C8.30879 13.4375 7.62974 13.2556 7.03109 12.9101C6.43243 12.5645 5.93526 12.0675 5.5895 11.469C5.55252 11.405 5.52849 11.3344 5.5188 11.2612C5.5091 11.188 5.51392 11.1136 5.53298 11.0422C5.55205 10.9708 5.58498 10.9039 5.62991 10.8453C5.67483 10.7866 5.73087 10.7374 5.79481 10.7004C5.85876 10.6634 5.92936 10.6394 6.00259 10.6297C6.07582 10.62 6.15024 10.6248 6.22161 10.6439C6.29298 10.663 6.35989 10.6959 6.41853 10.7408C6.47717 10.7858 6.52639 10.8418 6.56337 10.9057C6.81033 11.3335 7.16552 11.6886 7.59324 11.9356C8.02097 12.1825 8.50616 12.3125 9.00005 12.3125C9.49394 12.3125 9.97913 12.1825 10.4068 11.9355C10.8346 11.6886 11.1898 11.3334 11.4367 10.9057C11.4737 10.8418 11.5229 10.7857 11.5815 10.7408C11.6402 10.6959 11.7071 10.663 11.7785 10.6439C11.8498 10.6248 11.9242 10.62 11.9975 10.6297C12.0707 10.6394 12.1413 10.6634 12.2052 10.7004C12.2692 10.7374 12.3252 10.7866 12.3701 10.8453C12.415 10.9039 12.448 10.9708 12.467 11.0422C12.4861 11.1135 12.4909 11.188 12.4812 11.2612C12.4715 11.3344 12.4475 11.405 12.4105 11.469Z" fill="#4163BB"/>
</svg>
