<svg width="18" height="19" viewBox="0 0 18 19" fill="none" xmlns="http://www.w3.org/2000/svg">
<path d="M15.1727 8.80841C15.1515 8.71838 15.1085 8.63495 15.0474 8.5655C14.9864 8.49606 14.9091 8.44274 14.8225 8.41026L10.7704 6.89071L11.8016 1.73476C11.8256 1.61475 11.8098 1.49019 11.7566 1.37997C11.7034 1.26976 11.6157 1.17989 11.5068 1.12401C11.398 1.06814 11.2738 1.04929 11.1533 1.07034C11.0327 1.09139 10.9223 1.15118 10.8388 1.24065L2.96378 9.67815C2.90068 9.74576 2.85523 9.82788 2.83143 9.91724C2.80764 10.0066 2.80625 10.1005 2.82738 10.1905C2.84852 10.2805 2.89152 10.364 2.95259 10.4334C3.01366 10.5029 3.09091 10.5562 3.1775 10.5886L7.22964 12.1082L6.19844 17.2641C6.17442 17.3842 6.19021 17.5087 6.2434 17.619C6.29659 17.7292 6.38429 17.819 6.49318 17.8749C6.60206 17.9308 6.72621 17.9497 6.84677 17.9286C6.96734 17.9075 7.07775 17.8477 7.16125 17.7583L15.0362 9.32075C15.0993 9.25314 15.1448 9.17102 15.1686 9.08166C15.1924 8.99229 15.1938 8.89844 15.1727 8.80841Z" fill="#4163BB"/>
</svg>
