<svg width="24" height="24" viewBox="0 0 24 24" fill="none" xmlns="http://www.w3.org/2000/svg">
<path d="M4.5 3.75L19.5 20.25" stroke="#C0C0C0" stroke-width="2" stroke-linecap="round" stroke-linejoin="round"/>
<path d="M14.5226 14.7749C13.7866 15.4438 12.8151 15.793 11.8217 15.7457C10.8284 15.6983 9.89446 15.2583 9.22548 14.5225C8.5565 13.7866 8.20723 12.8151 8.25448 11.8217C8.30174 10.8283 8.74167 9.89439 9.47749 9.22534" stroke="#C0C0C0" stroke-width="2" stroke-linecap="round" stroke-linejoin="round"/>
<path d="M6.93698 6.43066C3.11486 8.36618 1.5 12 1.5 12C1.5 12 4.5 18.7493 12 18.7493C13.7572 18.7633 15.4926 18.3585 17.0623 17.5685" stroke="#C0C0C0" stroke-width="2" stroke-linecap="round" stroke-linejoin="round"/>
<path d="M19.5571 15.8531C21.6011 14.0224 22.5 12 22.5 12C22.5 12 19.5 5.24928 12 5.24928C11.3504 5.24822 10.7019 5.30103 10.061 5.40717" stroke="#C0C0C0" stroke-width="2" stroke-linecap="round" stroke-linejoin="round"/>
<path d="M12.7057 8.31641C13.5027 8.46945 14.2287 8.8768 14.7746 9.47734C15.3205 10.0779 15.657 10.8392 15.7336 11.6472" stroke="#C0C0C0" stroke-width="2" stroke-linecap="round" stroke-linejoin="round"/>
</svg>
