<svg width="18" height="19" viewBox="0 0 18 19" fill="none" xmlns="http://www.w3.org/2000/svg">
<path d="M14.8297 10.8298C14.1071 11.5475 13.1858 12.032 12.185 12.2204C11.1841 12.4089 10.1497 12.2928 9.21562 11.887L5.55638 16.1235C5.54742 16.1338 5.53811 16.1438 5.52844 16.1535C5.10641 16.5751 4.53422 16.8119 3.93768 16.8117C3.34114 16.8116 2.76908 16.5745 2.34726 16.1527C1.92543 15.7309 1.68839 15.1588 1.68823 14.5623C1.68808 13.9658 1.92482 13.3936 2.34642 12.9715C2.3561 12.9619 2.36616 12.9525 2.37649 12.9435L6.61303 9.28425C6.20599 8.35566 6.08705 7.32628 6.2716 6.32933C6.45615 5.33239 6.9357 4.41379 7.64817 3.69243C8.36063 2.97108 9.27322 2.48019 10.2678 2.2833C11.2624 2.08641 12.2932 2.19259 13.2267 2.58809C13.3115 2.62408 13.3862 2.68034 13.4442 2.75194C13.5022 2.82353 13.5417 2.90827 13.5593 2.99872C13.5769 3.08916 13.572 3.18254 13.5451 3.27065C13.5182 3.35876 13.47 3.43892 13.4049 3.50407L10.6673 6.24159L10.9325 7.56744L12.2583 7.83262L14.9959 5.09503C15.0611 5.0299 15.1412 4.98176 15.2293 4.95484C15.3174 4.92792 15.4108 4.92304 15.5013 4.94064C15.5917 4.95823 15.6764 4.99775 15.748 5.05574C15.8196 5.11373 15.8759 5.18841 15.9119 5.27322C16.3081 6.20136 16.4168 7.22705 16.2239 8.21764C16.031 9.20824 15.5453 10.1182 14.8297 10.8298Z" fill="#4163BB"/>
</svg>
