<svg width="18" height="19" viewBox="0 0 18 19" fill="none" xmlns="http://www.w3.org/2000/svg">
<path d="M15.75 5.89202L12.608 2.75C12.5036 2.64553 12.3795 2.56266 12.243 2.50612C12.1066 2.44958 11.9603 2.42048 11.8125 2.42048C11.6648 2.42048 11.5185 2.44958 11.382 2.50612C11.2455 2.56266 11.1215 2.64553 11.017 2.75L9.16487 4.60216L2.57956 11.1875C2.47475 11.2917 2.39166 11.4157 2.33509 11.5522C2.27852 11.6888 2.2496 11.8352 2.25 11.983V15.125C2.25035 15.4233 2.36898 15.7092 2.57989 15.9201C2.79079 16.131 3.07674 16.2497 3.375 16.25H6.51703C6.66482 16.2504 6.81123 16.2215 6.94777 16.1649C7.08432 16.1084 7.20829 16.0253 7.3125 15.9205L15.75 7.48298C15.9607 7.27183 16.079 6.98575 16.079 6.68749C16.079 6.38924 15.9607 6.10316 15.75 5.89202ZM13.5 8.14202L10.358 5L11.8125 3.54548L14.9545 6.6875L13.5 8.14202Z" fill="#4163BB"/>
</svg>
