<svg width="18" height="19" viewBox="0 0 18 19" fill="none" xmlns="http://www.w3.org/2000/svg">
<path d="M11.0906 8.45451C11.0064 8.33138 10.9745 8.17984 11.002 8.03321C11.0295 7.88658 11.1141 7.75688 11.2372 7.67263L15.9949 4.41731C16.118 4.33307 16.2696 4.30118 16.4162 4.32868C16.5629 4.35617 16.6926 4.44079 16.7768 4.56391C16.861 4.68704 16.8929 4.83858 16.8654 4.98522C16.8379 5.13185 16.7533 5.26155 16.6302 5.34579L11.8725 8.60111C11.8115 8.64285 11.7429 8.67216 11.6706 8.68738C11.5983 8.7026 11.5238 8.70342 11.4512 8.68981C11.3785 8.67619 11.3093 8.64841 11.2475 8.60803C11.1856 8.56766 11.1323 8.51549 11.0906 8.45451ZM16.7768 14.4361C16.7351 14.4971 16.6818 14.5492 16.6199 14.5896C16.5581 14.63 16.4888 14.6578 16.4162 14.6714C16.3436 14.685 16.269 14.6842 16.1968 14.669C16.1245 14.6537 16.0559 14.6244 15.9949 14.5827L9.56255 10.1816L6.57387 12.2265C6.80339 12.8056 6.8115 13.449 6.59667 14.0338C6.38183 14.6185 5.95909 15.1036 5.40922 15.3964C4.85936 15.6892 4.2209 15.7691 3.61582 15.6209C3.01074 15.4727 2.48146 15.1068 2.12909 14.5931C1.77672 14.0794 1.62596 13.4539 1.70562 12.836C1.78527 12.2182 2.08976 11.6513 2.5609 11.2438C3.03205 10.8362 3.63683 10.6165 4.2597 10.6267C4.88258 10.6368 5.47988 10.8761 5.93751 11.2988L8.5664 9.50002L5.93748 7.70128C5.48192 8.12103 4.88774 8.35831 4.26836 8.36783C3.64897 8.37735 3.04778 8.15844 2.57953 7.7529C2.11128 7.34735 1.80878 6.78357 1.72976 6.16918C1.65074 5.55479 1.80075 4.93281 2.15114 4.42198C2.50154 3.91115 3.02778 3.54725 3.62941 3.39974C4.23105 3.25222 4.86593 3.33143 5.41288 3.62225C5.95983 3.91306 6.38053 4.3951 6.59467 4.97637C6.80881 5.55763 6.8014 6.19739 6.57385 6.77354L16.6302 13.6542C16.7533 13.7384 16.8379 13.8682 16.8654 14.0148C16.8929 14.1614 16.861 14.313 16.7768 14.4361ZM5.62506 13.1562C5.62507 12.8309 5.51227 12.5156 5.30588 12.2641C5.09949 12.0126 4.81228 11.8405 4.49319 11.777C4.1741 11.7135 3.84287 11.7626 3.55594 11.916C3.269 12.0694 3.04413 12.3175 2.91962 12.618C2.79511 12.9186 2.77867 13.2531 2.87311 13.5644C2.96755 13.8757 3.16702 14.1447 3.43753 14.3255C3.70804 14.5062 4.03286 14.5876 4.35664 14.5557C4.68042 14.5238 4.98312 14.3806 5.21318 14.1506C5.34417 14.0203 5.44803 13.8654 5.51873 13.6947C5.58943 13.524 5.62557 13.341 5.62506 13.1562ZM5.21318 6.83808C5.40985 6.64141 5.54378 6.39084 5.59804 6.11806C5.6523 5.84527 5.62445 5.56252 5.51802 5.30556C5.41158 5.0486 5.23134 4.82897 5.00008 4.67445C4.76883 4.51993 4.49694 4.43746 4.21881 4.43746C3.94068 4.43746 3.6688 4.51993 3.43754 4.67445C3.20628 4.82897 3.02604 5.0486 2.91961 5.30556C2.81317 5.56252 2.78532 5.84527 2.83958 6.11806C2.89385 6.39084 3.02778 6.64141 3.22445 6.83808C3.3544 6.96979 3.50921 7.07436 3.67991 7.14574C3.85061 7.21712 4.03379 7.25388 4.21881 7.25388C4.40384 7.25388 4.58701 7.21712 4.75771 7.14574C4.92841 7.07436 5.08323 6.96979 5.21318 6.83808Z" fill="#4163BB"/>
</svg>
