<svg width="18" height="19" viewBox="0 0 18 19" fill="none" xmlns="http://www.w3.org/2000/svg">
<path d="M12.9375 7.30658V6.6875C12.9368 6.09097 12.6995 5.51907 12.2777 5.09726C11.8559 4.67545 11.284 4.43818 10.6875 4.4375H9.5625V2.75H11.8125C11.9616 2.75017 12.1046 2.80949 12.2101 2.91494C12.3155 3.02039 12.3748 3.16337 12.375 3.3125C12.375 3.46168 12.4343 3.60476 12.5398 3.71025C12.6452 3.81574 12.7883 3.875 12.9375 3.875C13.0867 3.875 13.2298 3.81574 13.3352 3.71025C13.4407 3.60476 13.5 3.46168 13.5 3.3125C13.4995 2.8651 13.3215 2.43618 13.0052 2.11982C12.6888 1.80347 12.2599 1.62551 11.8125 1.625H7.3125C7.16332 1.625 7.02024 1.68426 6.91475 1.78975C6.80926 1.89524 6.75 2.03832 6.75 2.1875C6.75 2.33668 6.80926 2.47976 6.91475 2.58525C7.02024 2.69074 7.16332 2.75 7.3125 2.75H8.4375V4.4375H7.3125C6.71597 4.43818 6.14407 4.67545 5.72226 5.09726C5.30045 5.51907 5.06318 6.09097 5.0625 6.6875V7.30658C4.4277 7.43708 3.8573 7.78244 3.44745 8.28445C3.03759 8.78646 2.81334 9.41443 2.8125 10.0625V15.6875C2.81284 15.9858 2.93148 16.2717 3.14238 16.4826C3.35329 16.6935 3.63924 16.8122 3.9375 16.8125H14.0625C14.3608 16.8122 14.6467 16.6935 14.8576 16.4826C15.0685 16.2717 15.1872 15.9858 15.1875 15.6875V10.0625C15.1867 9.41443 14.9624 8.78646 14.5526 8.28445C14.1427 7.78244 13.5723 7.43708 12.9375 7.30658ZM7.3125 5.5625H10.6875C10.9858 5.56284 11.2717 5.68148 11.4826 5.89238C11.6935 6.10329 11.8122 6.38924 11.8125 6.6875V7.25H6.1875V6.6875C6.18784 6.38924 6.30648 6.10329 6.51738 5.89238C6.72829 5.68148 7.01424 5.56284 7.3125 5.5625Z" fill="#4163BB"/>
</svg>
