<svg width="18" height="19" viewBox="0 0 18 19" fill="none" xmlns="http://www.w3.org/2000/svg">
<path d="M14.625 4.4375H12.6756L11.7176 3.00049C11.6662 2.92344 11.5967 2.86026 11.515 2.81656C11.4334 2.77286 11.3422 2.75 11.2496 2.75H6.74959C6.65699 2.75 6.56581 2.77286 6.48417 2.81656C6.40253 2.86026 6.33293 2.92344 6.28157 3.00049L5.32356 4.4375H3.375C2.9276 4.43801 2.49868 4.61597 2.18232 4.93232C1.86597 5.24868 1.68801 5.6776 1.6875 6.125V14C1.68801 14.4474 1.86597 14.8763 2.18232 15.1927C2.49868 15.509 2.9276 15.687 3.375 15.6875H14.625C15.0724 15.687 15.5013 15.509 15.8177 15.1927C16.134 14.8763 16.312 14.4474 16.3125 14V6.125C16.312 5.6776 16.134 5.24868 15.8177 4.93232C15.5013 4.61597 15.0724 4.43801 14.625 4.4375ZM11.5312 9.78125C11.5312 10.2819 11.3828 10.7713 11.1047 11.1875C10.8265 11.6038 10.4312 11.9282 9.96867 12.1198C9.50614 12.3114 8.99719 12.3615 8.50618 12.2639C8.01516 12.1662 7.56414 11.9251 7.21014 11.5711C6.85613 11.2171 6.61506 10.7661 6.51739 10.2751C6.41972 9.78406 6.46985 9.27511 6.66143 8.81258C6.85301 8.35006 7.17745 7.95473 7.59371 7.67659C8.00997 7.39846 8.49937 7.25 9 7.25C9.6711 7.25075 10.3145 7.51768 10.789 7.99222C11.2636 8.46676 11.5305 9.11015 11.5312 9.78125Z" fill="#4163BB"/>
</svg>
