<svg width="18" height="19" viewBox="0 0 18 19" fill="none" xmlns="http://www.w3.org/2000/svg">
<path d="M5.0625 16.5312C5.0625 16.6981 5.01302 16.8613 4.9203 17C4.82759 17.1388 4.69581 17.2469 4.54164 17.3108C4.38746 17.3746 4.21781 17.3913 4.05414 17.3588C3.89047 17.3262 3.74013 17.2459 3.62213 17.1279C3.50413 17.0099 3.42377 16.8595 3.39121 16.6959C3.35866 16.5322 3.37537 16.3625 3.43923 16.2084C3.50309 16.0542 3.61123 15.9224 3.74999 15.8297C3.88874 15.737 4.05187 15.6875 4.21875 15.6875C4.44253 15.6875 4.65714 15.7764 4.81537 15.9346C4.97361 16.0929 5.0625 16.3075 5.0625 16.5312ZM6.1875 13.7187C6.02062 13.7187 5.85749 13.7682 5.71874 13.8609C5.57998 13.9537 5.47184 14.0854 5.40798 14.2396C5.34412 14.3938 5.32741 14.5634 5.35996 14.7271C5.39252 14.8908 5.47288 15.0411 5.59088 15.1591C5.70888 15.2771 5.85922 15.3575 6.02289 15.39C6.18656 15.4226 6.35621 15.4059 6.51039 15.342C6.66456 15.2782 6.79634 15.17 6.88905 15.0313C6.98177 14.8925 7.03125 14.7294 7.03125 14.5625C7.03125 14.3387 6.94236 14.1241 6.78412 13.9659C6.62589 13.8076 6.41128 13.7187 6.1875 13.7187ZM1.96875 13.4375C1.80187 13.4375 1.63874 13.487 1.49999 13.5797C1.36123 13.6724 1.25309 13.8042 1.18923 13.9584C1.12537 14.1125 1.10866 14.2822 1.14121 14.4459C1.17377 14.6095 1.25413 14.7599 1.37213 14.8779C1.49013 14.9959 1.64047 15.0762 1.80414 15.1088C1.96781 15.1413 2.13746 15.1246 2.29164 15.0608C2.44581 14.9969 2.57759 14.8888 2.6703 14.75C2.76302 14.6113 2.8125 14.4481 2.8125 14.2812C2.8125 14.0575 2.72361 13.8429 2.56537 13.6846C2.40714 13.5264 2.19253 13.4375 1.96875 13.4375ZM4.78125 12.3125C4.78125 12.1456 4.73177 11.9825 4.63905 11.8437C4.54634 11.705 4.41456 11.5968 4.26039 11.533C4.10621 11.4691 3.93656 11.4524 3.77289 11.485C3.60922 11.5175 3.45888 11.5979 3.34088 11.7159C3.22288 11.8339 3.14252 11.9842 3.10996 12.1479C3.07741 12.3116 3.09412 12.4812 3.15798 12.6354C3.22184 12.7896 3.32998 12.9213 3.46874 13.014C3.60749 13.1068 3.77062 13.1562 3.9375 13.1562C4.16128 13.1562 4.37589 13.0674 4.53412 12.9091C4.69236 12.7509 4.78125 12.5363 4.78125 12.3125ZM17.4375 2.75H15.4205C15.2727 2.74959 15.1263 2.77851 14.9897 2.83507C14.8532 2.89163 14.7292 2.97472 14.625 3.07952L12.6672 5.03728L3.79818 6.51546C3.59429 6.54945 3.40371 6.63895 3.24735 6.77415C3.09099 6.90934 2.9749 7.085 2.91182 7.28184C2.84874 7.47869 2.84111 7.6891 2.88977 7.89C2.93843 8.09089 3.04149 8.27449 3.18765 8.42066L10.0793 15.3123C10.2255 15.4585 10.4091 15.5616 10.61 15.6102C10.8109 15.6589 11.0213 15.6513 11.2182 15.5882C11.415 15.5251 11.5907 15.409 11.7259 15.2527C11.8611 15.0963 11.9506 14.9057 11.9845 14.7018L13.4627 5.83279V5.83276L15.4205 3.875H17.4375C17.5867 3.875 17.7298 3.81573 17.8352 3.71024C17.9407 3.60475 18 3.46168 18 3.3125C18 3.16331 17.9407 3.02024 17.8352 2.91475C17.7298 2.80926 17.5867 2.75 17.4375 2.75Z" fill="#4163BB"/>
</svg>
