<svg width="18" height="19" viewBox="0 0 18 19" fill="none" xmlns="http://www.w3.org/2000/svg">
<path d="M16.3399 7.50097L16.3399 7.50098L16.3417 7.50648C16.3842 7.63478 16.3871 7.7729 16.35 7.90286C16.3129 8.03279 16.2376 8.14855 16.1338 8.23507C16.1338 8.23509 16.1337 8.23511 16.1337 8.23513L12.9534 10.8821L12.7127 11.0824L12.7879 11.3864L13.7975 15.47L13.7975 15.47L13.799 15.4758C13.833 15.6065 13.8267 15.7444 13.781 15.8714C13.7353 15.9985 13.6523 16.1088 13.5428 16.1879L13.5411 16.1892C13.4378 16.2645 13.3142 16.307 13.1865 16.3109C13.0587 16.3148 12.9328 16.2801 12.8251 16.2113L12.8234 16.2103L9.27705 13.9636L9.26488 13.9559L9.25229 13.9489C9.20092 13.9203 9.09324 13.8713 8.95067 13.8849C8.83529 13.8959 8.75176 13.9438 8.71245 13.9704L5.42732 16.0515L5.42648 16.0521C5.2988 16.1333 5.14963 16.1742 4.99837 16.1695C4.84712 16.1648 4.70078 16.1147 4.57841 16.0257L4.57724 16.0248C4.44801 15.9314 4.35 15.8011 4.29605 15.651C4.24209 15.5009 4.23471 15.338 4.27487 15.1837L4.27555 15.181L5.22587 11.4429L5.30294 11.1397L5.06406 10.9378L1.86923 8.23738L1.86924 8.23737L1.86654 8.23513C1.76271 8.1486 1.68734 8.03282 1.65024 7.90286C1.61314 7.7729 1.61603 7.63477 1.65854 7.50648L1.65857 7.50649L1.66033 7.50097C1.70005 7.37626 1.77644 7.26642 1.87953 7.18578C1.98262 7.10514 2.10762 7.05744 2.23823 7.04891L6.39088 6.7792L6.70537 6.75877L6.82259 6.46624L8.39474 2.54302L8.39476 2.54303L8.3967 2.53806C8.4439 2.41652 8.52667 2.31206 8.6342 2.23833C8.74162 2.16467 8.86875 2.12511 8.99899 2.1248H8.9995C8.99953 2.1248 8.99956 2.1248 8.99959 2.1248C9.13018 2.12484 9.25772 2.16432 9.36549 2.23807C9.4733 2.31184 9.5563 2.41645 9.60363 2.5382L9.60361 2.5382L9.60496 2.54158L11.154 6.44228L11.2701 6.73456L11.5838 6.75651L15.7597 7.04876L15.762 7.04891C15.8926 7.05744 16.0176 7.10514 16.1207 7.18578C16.2238 7.26642 16.3002 7.37627 16.3399 7.50097Z" stroke="#FFD600"/>
</svg>
